<svg width="27" height="15" viewBox="0 0 27 15" fill="none" xmlns="http://www.w3.org/2000/svg">
<path d="M7.684 4.416V6.492C7.86 6.188 8.104 5.948 8.416 5.772C8.736 5.588 9.112 5.496 9.544 5.496C10.04 5.496 10.472 5.616 10.84 5.856C11.216 6.096 11.504 6.424 11.704 6.84C11.904 7.256 12.004 7.724 12.004 8.244C12.004 8.812 11.896 9.304 11.68 9.72C11.472 10.128 11.18 10.44 10.804 10.656C10.428 10.872 10 10.98 9.52 10.98C9.24 10.98 8.976 10.952 8.728 10.896V9.672C8.824 9.704 8.948 9.72 9.1 9.72C9.492 9.72 9.812 9.592 10.06 9.336C10.308 9.08 10.432 8.728 10.432 8.28C10.432 7.856 10.304 7.508 10.048 7.236C9.792 6.964 9.464 6.828 9.064 6.828C8.616 6.828 8.272 6.98 8.032 7.284C7.8 7.588 7.684 7.956 7.684 8.388V12H6.196V10.056C6.012 10.376 5.752 10.628 5.416 10.812C5.08 10.988 4.68 11.076 4.216 11.076C3.712 11.076 3.272 10.96 2.896 10.728C2.52 10.496 2.228 10.168 2.02 9.744C1.812 9.32 1.708 8.832 1.708 8.28C1.708 7.728 1.812 7.244 2.02 6.828C2.236 6.404 2.536 6.076 2.92 5.844C3.312 5.612 3.764 5.496 4.276 5.496C4.724 5.496 5.108 5.584 5.428 5.76C5.748 5.928 6.004 6.164 6.196 6.468V4.416H0.748V3.12H12.952V4.416H7.684ZM4.732 9.78C5.044 9.78 5.308 9.708 5.524 9.564C5.748 9.42 5.916 9.236 6.028 9.012C6.14 8.78 6.196 8.54 6.196 8.292C6.196 7.892 6.068 7.548 5.812 7.26C5.564 6.964 5.208 6.816 4.744 6.816C4.328 6.816 3.98 6.952 3.7 7.224C3.42 7.496 3.28 7.852 3.28 8.292C3.28 8.74 3.416 9.1 3.688 9.372C3.96 9.644 4.308 9.78 4.732 9.78ZM18.035 0.636L14.795 14.172H13.151L16.391 0.636H18.035ZM24.507 10.404H21.171L20.619 12H18.855L21.867 3.612H23.823L26.835 12H25.059L24.507 10.404ZM24.051 9.06L22.839 5.556L21.627 9.06H24.051Z" fill="#1E1E1E"/>
</svg>
