<svg width="16" height="17" viewBox="0 0 16 17" fill="none" xmlns="http://www.w3.org/2000/svg">
<path d="M13.3334 13.1667V7.50004C13.3334 7.39654 13.3093 7.29447 13.263 7.2019C13.2167 7.10933 13.1495 7.02881 13.0667 6.96671L8.40008 3.46671C8.28468 3.38016 8.14433 3.33337 8.00008 3.33337C7.85583 3.33337 7.71548 3.38016 7.60008 3.46671L2.93341 6.96671C2.85062 7.02881 2.78342 7.10933 2.73713 7.2019C2.69084 7.29447 2.66675 7.39654 2.66675 7.50004V13.1667C2.66675 13.3435 2.73699 13.5131 2.86201 13.6381C2.98703 13.7631 3.1566 13.8334 3.33341 13.8334H6.00008C6.17689 13.8334 6.34646 13.7631 6.47149 13.6381C6.59651 13.5131 6.66675 13.3435 6.66675 13.1667V11.1667C6.66675 10.9899 6.73699 10.8203 6.86201 10.6953C6.98704 10.5703 7.1566 10.5 7.33342 10.5H8.66675C8.84356 10.5 9.01313 10.5703 9.13815 10.6953C9.26318 10.8203 9.33342 10.9899 9.33342 11.1667V13.1667C9.33342 13.3435 9.40365 13.5131 9.52868 13.6381C9.6537 13.7631 9.82327 13.8334 10.0001 13.8334H12.6667C12.8436 13.8334 13.0131 13.7631 13.1382 13.6381C13.2632 13.5131 13.3334 13.3435 13.3334 13.1667Z" fill="#4A00B3" stroke="#4A00B3" stroke-width="2" stroke-linecap="round" stroke-linejoin="round"/>
</svg>
