<svg width="11" height="12" viewBox="0 0 11 12" fill="none" xmlns="http://www.w3.org/2000/svg">
<path d="M3.06137 0.426086V7.52169C2.83811 7.43962 2.60248 7.39626 2.36463 7.39349C1.95123 7.39349 1.54711 7.51608 1.20337 7.74575C0.859636 7.97543 0.591727 8.30188 0.433524 8.68381C0.27532 9.06575 0.233926 9.48603 0.314578 9.89149C0.39523 10.297 0.594304 10.6694 0.886626 10.9617C1.17895 11.254 1.55139 11.4531 1.95685 11.5338C2.36232 11.6144 2.78259 11.573 3.16453 11.4148C3.54647 11.2566 3.87291 10.9887 4.10259 10.645C4.33227 10.3012 4.45485 9.89711 4.45485 9.48371V2.51631H9.33204V5.43147C9.10878 5.3494 8.87314 5.30604 8.63529 5.30327C8.22189 5.30327 7.81777 5.42586 7.47403 5.65553C7.1303 5.88521 6.86239 6.21166 6.70418 6.59359C6.54598 6.97553 6.50459 7.39581 6.58524 7.80127C6.66589 8.20673 6.86496 8.57917 7.15729 8.8715C7.44961 9.16382 7.82205 9.36289 8.22751 9.44354C8.63298 9.5242 9.05325 9.4828 9.43519 9.3246C9.81713 9.16639 10.1436 8.89849 10.3733 8.55475C10.6029 8.21102 10.7255 7.80689 10.7255 7.39349V0.426086H3.06137Z" fill="#1E1E1E"/>
</svg>
