<svg width="13" height="10" viewBox="0 0 13 10" fill="none" xmlns="http://www.w3.org/2000/svg">
<path d="M5.60453 7.052C5.82222 7.24571 6.10637 7.33464 6.45699 7.31879C6.80856 7.3025 7.06815 7.19214 7.23575 6.98771L10.0106 3.54264C10.1093 3.41579 10.1009 3.30093 9.98528 3.19807C9.8697 3.09521 9.74038 3.0875 9.59734 3.17493L5.71289 5.63321C5.47353 5.77636 5.33892 5.9975 5.30906 6.29664C5.2792 6.59579 5.37769 6.84757 5.60453 7.052ZM1.51708 9.5C1.38367 9.5 1.26086 9.46978 1.14865 9.40936C1.03595 9.3485 0.941072 9.26579 0.864014 9.16121C0.578899 8.72364 0.363618 8.26121 0.218171 7.77393C0.0727236 7.28664 0 6.79057 0 6.28571C0 5.48514 0.170732 4.733 0.512196 4.02929C0.853659 3.32557 1.31697 2.71336 1.90213 2.19264C2.48729 1.67193 3.17527 1.25964 3.96608 0.955786C4.75689 0.651929 5.60212 0.5 6.50178 0.5C7.39613 0.5 8.23582 0.649571 9.02085 0.948714C9.80588 1.24743 10.4927 1.65457 11.0812 2.17014C11.6702 2.68614 12.1364 3.29 12.4798 3.98171C12.8237 4.67386 12.9971 5.41721 12.9999 6.21179C13.0023 6.74493 12.9316 7.26179 12.7875 7.76236C12.6435 8.26336 12.4261 8.74614 12.1352 9.21071C12.0678 9.31528 11.9763 9.38964 11.8607 9.43379C11.7456 9.47793 11.6194 9.5 11.4821 9.5H1.51708Z" fill="#1E1E1E"/>
</svg>
