<svg width="16" height="13" viewBox="0 0 16 13" fill="none" xmlns="http://www.w3.org/2000/svg">
<path d="M6.32 0.812492C5.19094 0.27343 3.61281 0.00936728 1.5 -7.72101e-06C1.30074 -0.00271488 1.10539 0.0553887 0.940002 0.166555C0.804248 0.258314 0.693122 0.382026 0.616398 0.526809C0.539674 0.671593 0.499704 0.833012 0.500002 0.996867V9.93749C0.500002 10.5419 0.930002 10.9978 1.5 10.9978C3.72094 10.9978 5.94875 11.2053 7.28313 12.4666C7.30138 12.4839 7.32432 12.4955 7.34911 12.4999C7.37389 12.5043 7.39942 12.5013 7.42253 12.4913C7.44563 12.4813 7.46529 12.4648 7.47907 12.4437C7.49284 12.4226 7.50012 12.398 7.5 12.3728V1.83812C7.50004 1.76704 7.48482 1.69679 7.45539 1.6321C7.42595 1.56741 7.38298 1.50978 7.32938 1.46312C7.02372 1.20182 6.6842 0.982965 6.32 0.812492ZM15.06 0.165617C14.8945 0.0547279 14.6992 -0.00305133 14.5 -7.72101e-06C12.3872 0.00936728 10.8091 0.27218 9.68 0.812492C9.31582 0.982653 8.97621 1.20107 8.67031 1.46187C8.61681 1.5086 8.57393 1.56625 8.54456 1.63093C8.51518 1.69561 8.49999 1.76583 8.5 1.83687V12.3722C8.49999 12.3964 8.50711 12.42 8.52049 12.4402C8.53387 12.4603 8.5529 12.4761 8.57519 12.4855C8.59749 12.4948 8.62206 12.4974 8.64582 12.4929C8.66958 12.4884 8.69147 12.4769 8.70875 12.46C9.51094 11.6631 10.9188 10.9969 14.5013 10.9972C14.7665 10.9972 15.0208 10.8918 15.2084 10.7043C15.3959 10.5168 15.5013 10.2624 15.5013 9.99718V0.99718C15.5016 0.833 15.4616 0.671256 15.3846 0.526229C15.3076 0.381201 15.1962 0.257352 15.06 0.165617Z" fill="#4A00B3"/>
</svg>
