<svg width="3" height="11" viewBox="0 0 3 11" fill="none" xmlns="http://www.w3.org/2000/svg">
<path d="M1.5 2.44444C1.10218 2.44444 0.720645 2.31568 0.43934 2.08646C0.158036 1.85725 0 1.54638 0 1.22222C0 0.898069 0.158036 0.587192 0.43934 0.357981C0.720645 0.128769 1.10218 0 1.5 0C1.89782 0 2.27936 0.128769 2.56066 0.357981C2.84196 0.587192 3 0.898069 3 1.22222C3 1.54638 2.84196 1.85725 2.56066 2.08646C2.27936 2.31568 1.89782 2.44444 1.5 2.44444ZM1.5 6.72222C1.10218 6.72222 0.720645 6.59345 0.43934 6.36424C0.158036 6.13503 0 5.82415 0 5.5C0 5.17585 0.158036 4.86497 0.43934 4.63576C0.720645 4.40655 1.10218 4.27778 1.5 4.27778C1.89782 4.27778 2.27936 4.40655 2.56066 4.63576C2.84196 4.86497 3 5.17585 3 5.5C3 5.82415 2.84196 6.13503 2.56066 6.36424C2.27936 6.59345 1.89782 6.72222 1.5 6.72222ZM1.5 11C1.10218 11 0.720645 10.8712 0.43934 10.642C0.158036 10.4128 0 10.1019 0 9.77778C0 9.45362 0.158036 9.14275 0.43934 8.91354C0.720645 8.68433 1.10218 8.55556 1.5 8.55556C1.89782 8.55556 2.27936 8.68433 2.56066 8.91354C2.84196 9.14275 3 9.45362 3 9.77778C3 10.1019 2.84196 10.4128 2.56066 10.642C2.27936 10.8712 1.89782 11 1.5 11Z" fill="#F0F0F0"/>
</svg>
