<svg width="17" height="12" viewBox="0 0 17 12" fill="none" xmlns="http://www.w3.org/2000/svg">
<path d="M15.886 2.24998C15.7199 2.23081 15.5519 2.2606 15.4026 2.3357L11.5 4.2857V7.71427L15.4026 9.66427C15.5331 9.72949 15.6781 9.76031 15.8239 9.75382C15.9696 9.74733 16.1113 9.70374 16.2355 9.62717C16.3597 9.55061 16.4623 9.44361 16.5336 9.3163C16.6049 9.189 16.6425 9.0456 16.6429 8.8997V3.10027C16.6426 2.89047 16.5654 2.68805 16.426 2.53135C16.2865 2.37464 16.0944 2.27453 15.886 2.24998Z" fill="#1E1E1E"/>
<path d="M2.92885 0C1.51885 0 0.357422 1.16143 0.357422 2.57143V9.42857C0.357422 10.8386 1.51885 12 2.92885 12H9.78599C11.196 12 12.3574 10.8386 12.3574 9.42857V2.57143C12.3574 1.16143 11.196 0 9.78599 0H2.92885Z" fill="#1E1E1E"/>
</svg>
